<?xml version="1.0" encoding="UTF-8" standalone="no"?><!DOCTYPE svg PUBLIC "-//W3C//DTD SVG 1.1//EN" "http://www.w3.org/Graphics/SVG/1.1/DTD/svg11.dtd"><svg width="100%" height="100%" viewBox="0 0 6398 1221" version="1.1" xmlns="http://www.w3.org/2000/svg" xmlns:xlink="http://www.w3.org/1999/xlink" xml:space="preserve" xmlns:serif="http://www.serif.com/" style="fill-rule:evenodd;clip-rule:evenodd;stroke-linecap:round;stroke-linejoin:round;stroke-miterlimit:1.5;"><g><g><path d="M2047.19,1207.22l-140.614,0l0,-383.467c0,-7.489 -1.884,-14.48 -5.654,-20.971c-3.769,-6.491 -8.85,-12.17 -15.241,-17.038c-6.392,-4.869 -13.848,-8.676 -22.37,-11.422c-8.522,-2.746 -17.7,-4.119 -27.533,-4.119c-9.833,-0 -19.011,1.373 -27.533,4.119c-8.522,2.746 -15.979,6.553 -22.37,11.422c-6.392,4.868 -11.39,10.547 -14.996,17.038c-3.605,6.491 -5.408,13.482 -5.408,20.971l0,383.467l-141.105,0l0,-383.467c0,-7.489 -1.803,-14.48 -5.408,-20.971c-3.605,-6.491 -8.604,-12.17 -14.996,-17.038c-6.391,-4.869 -13.848,-8.676 -22.37,-11.422c-8.522,-2.746 -17.699,-4.119 -27.532,-4.119c-9.834,-0 -19.011,1.373 -27.533,4.119c-8.522,2.746 -15.979,6.553 -22.37,11.422c-6.392,4.868 -11.39,10.547 -14.996,17.038c-3.605,6.491 -5.408,13.482 -5.408,20.971l-0,383.467l-141.105,0l-0,-383.467c-0,-22.219 5.49,-43.127 16.47,-62.725c10.981,-19.598 26.058,-36.699 45.233,-51.304c19.174,-14.604 41.626,-26.089 67.356,-34.452c25.73,-8.363 53.181,-12.545 82.353,-12.545c26.221,0 51.459,3.558 75.714,10.673c24.255,7.115 46.052,17.413 65.391,30.894c19.338,-13.481 41.053,-23.779 65.144,-30.894c24.091,-7.115 49.247,-10.673 75.469,-10.673c29.171,0 56.622,4.182 82.352,12.545c25.73,8.363 48.182,19.848 67.357,34.452c19.174,14.605 34.252,31.706 45.232,51.304c10.98,19.598 16.471,40.506 16.471,62.725l-0,383.467Z" style="fill-rule:nonzero;"/><path d="M2662.75,1207.22c-2.037,10.623 -32.45,0 -32.45,0l-52.115,-72.273c-12.783,11.472 -26.304,22.206 -40.562,32.203c-14.258,9.997 -29.253,18.683 -44.986,26.058c-15.733,7.375 -31.876,13.193 -48.428,17.454c-16.552,4.261 -33.351,6.391 -50.395,6.391c-37.038,0 -71.863,-6.227 -104.476,-18.682c-32.613,-12.456 -61.129,-30.565 -85.548,-54.328c-24.419,-23.764 -43.676,-52.853 -57.77,-87.269c-14.094,-34.416 -21.141,-73.584 -21.141,-117.506c0,-40.971 7.047,-78.583 21.141,-112.834c14.094,-34.252 33.351,-63.67 57.77,-88.253c24.419,-24.582 52.935,-43.675 85.548,-57.277c32.613,-13.603 67.438,-20.404 104.476,-20.404c10.722,-0 382.531,-45.817 268.936,546.72Zm-135.205,-267.952c-0,-18.355 -3.524,-36.136 -10.571,-53.344c-7.047,-17.208 -16.634,-32.449 -28.762,-45.724c-12.127,-13.275 -26.303,-23.927 -42.528,-31.958c-16.225,-8.03 -33.515,-12.045 -51.87,-12.045c-18.355,-0 -35.645,3.114 -51.869,9.341c-16.225,6.228 -30.319,15.405 -42.283,27.533c-11.963,12.127 -21.387,27.123 -28.27,44.986c-6.883,17.864 -10.325,38.267 -10.325,61.211c0,22.944 3.442,43.348 10.325,61.211c6.883,17.864 16.307,32.859 28.27,44.987c11.964,12.127 26.058,21.305 42.283,27.533c16.224,6.227 33.514,9.341 51.869,9.341c18.355,-0 35.645,-4.015 51.87,-12.046c16.225,-8.03 30.401,-18.682 42.528,-31.957c12.128,-13.275 21.715,-28.516 28.762,-45.724c7.047,-17.208 10.571,-34.99 10.571,-53.345Z" style="fill-rule:nonzero;"/><rect x="2768.72" y="680.655" width="135.205" height="526.563" style="fill-rule:nonzero;"/><rect x="2762.51" y="471.18" width="136.045" height="121.132"/><rect x="3002.48" y="471.21" width="135.205" height="736.008" style="fill-rule:nonzero;"/></g><path d="M265.62,1214.85l990.29,-0c-0,-0 -220.418,-1068.39 -773.17,-1188.98c-927.035,-202.238 -217.12,1188.98 -217.12,1188.98Z" style="fill:none;stroke:#000;stroke-width:11.56px;"/><path d="M630.846,1214.85l625.064,-0c-0,-0 -122.035,-557.55 -352.644,-858.92c-26.018,-34.003 -88.688,-125.678 -117.452,-151.989c-57.936,-52.998 -191.04,-78.767 -254.362,-34.592c-321.992,224.632 99.394,1045.5 99.394,1045.5Z" style="stroke:#000;stroke-width:3.13px;"/><g transform="matrix(1006.97,0,0,1006.97,6436.75,1198.06)"></g><text x="3199.85px" y="1198.06px" style="font-family:'ArialMT', 'Arial', sans-serif;font-size:1006.97px;fill:#0d7370;">T<tspan x="3726.22px 4234.89px 4743.56px 5252.24px 5760.91px 5933.27px " y="1198.06px 1198.06px 1198.06px 1198.06px 1198.06px 1198.06px ">unnels</tspan></text></g></svg>