<?xml version="1.0" encoding="utf-8"?>
<!-- Generator: Adobe Illustrator 15.1.0, SVG Export Plug-In . SVG Version: 6.00 Build 0)  -->
<!DOCTYPE svg PUBLIC "-//W3C//DTD SVG 1.1//EN" "http://www.w3.org/Graphics/SVG/1.1/DTD/svg11.dtd">
<svg version="1.1" id="Layer_1" xmlns="http://www.w3.org/2000/svg" xmlns:xlink="http://www.w3.org/1999/xlink" x="0px" y="0px"
	 width="300px" height="300px" viewBox="0 0 300 300" enable-background="new 0 0 300 300" xml:space="preserve">
<path fill-rule="evenodd" clip-rule="evenodd" fill="#FEBD19" stroke="#000000" stroke-width="0.9601" stroke-linecap="round" stroke-miterlimit="2.6131" d="
	M136.778,102.919c-9.182-2.484-40.906,25.92-46.576,34.133c-0.917,1.329-36.744,31.269-39.625,32.832
	c-2.651,1.438-12.5,12.547-19.911,14.859c-0.547,0.171-17.119,12.864-17.907,15.143c-2.753,7.952-1.812,2.788-3.016,12.573
	c-0.335,2.724-0.414,4.339-0.414,7.239c0.083-0.2,3.484-3.636,3.592-3.68c-0.026-0.633,2.47-2.776,3.266-3.94
	c9.947-14.541,18.086-15.355,34.323-11.05c2.402,0.637,4.544,11.313,3.516,12.443c1.052,2.208-1.033,7.638,5.117,11.277
	c11.711,6.931,21.023-2.055,32.484-7.206c10.607-4.769,26.356-18.134,37.338-13.466c7.982,3.393,15.552,7.371,24.003,6.607
	c0.881-0.08,15.916,2.145,16.863-0.512c3.99-11.2,17.243-18.223,28.858-13.434c6.154,2.538,7.494-4.13,6.825-8.633
	c-0.399-2.689-0.172-5.903-1.175-8.447c1.655-2.538-11.526-36.196-12.89-41.497c-2.684-10.434,1.295-16.291-5.846-31.591
	c-3.502-7.502-2.739-13.896-12.345-5.236c-0.938,0.846-3.188,0.814-3.31,0.915c0.188,2.251-19.424,3.294-22.316,2.101
	c-0.915-0.377-5.079-0.781-5.715-0.413C139.847,102.741,138.962,103.511,136.778,102.919z"/>
<path fill-rule="evenodd" clip-rule="evenodd" fill="#FDE6C6" stroke="#000000" stroke-width="0.9601" stroke-linecap="round" stroke-miterlimit="2.6131" d="
	M145.921,74.725c-1.298,0.216-5.649,1.238-5.971,2.792c-1.838,0.38-5.926,5.356-4.854,9.558c2.989,11.73-6.433,8.394-0.316,16.035
	c1.114,1.392,5.633-1.293,5.237,8.764c-0.346,8.774,19.892,12.733,20.825,15.022c0.123,0.03,3.826-10.468,4.604-12.355
	c2.973-7.207,0.655-9.591,6.858-12.671c2.023-1.005-0.611-3.459-0.25-3.941c-1.852,0.154-12.537-20.149-12.704-20.248
	C153.464,74.196,151.13,73.859,145.921,74.725z"/>
<path fill-rule="evenodd" clip-rule="evenodd" fill="none" stroke="#000000" stroke-width="0.9601" stroke-linecap="round" stroke-miterlimit="2.6131" d="
	M143.064,108.063c3.419,7.558,13.209,2.974,17.276-0.315c0.433,0.118,1.736-0.48,2.155-0.828"/>
<path fill-rule="evenodd" clip-rule="evenodd" fill="none" stroke="#000000" stroke-width="0.9601" stroke-linecap="round" stroke-miterlimit="2.6131" d="
	M125.347,106.92c-1.81,1.214-10.354,7.46-6.668,8.666c5.961,1.948,14.802,8.486,19.051,8.829c0.324,0.026,7.542,1.197,7.653,1.241
	c4.271-2.786,16.647,4.872,19.649,1.709c2.824-2.976,10.415-13,11.561-16.667c0.135-0.432,12.335-19.906-1.176-11.909
	c-10.919,6.464-7.661,16.899-13.967,25.756c-1.243,1.747-19.648-6.622-19.943-10.004c-0.771-8.844-6.025-13.797-14.163-8.861
	C126.482,106.202,126.422,106.2,125.347,106.92z"/>
<path fill-rule="evenodd" clip-rule="evenodd" fill="#8E022C" stroke="#000000" stroke-width="0.9601" stroke-linecap="round" stroke-miterlimit="2.6131" d="
	M116.394,113.397c-21.606-1.721-11.034,0.346-30.067,4.224c-3.978,0.81-9.039-0.133-12.704,4.061
	c-2.193,2.509-6.332,1.722-7.87,10.799c-2.75,16.231-1.326,8.832,5.367,13.401c1.663,1.135,14.838,1.763,13.999-2.352
	c-0.907-4.447,5.899-2.521,8.513-0.163c6.39,5.763,13.162-6.766,15.11,4.735c1.46,8.616,13.366,19.053,18.071,24.635
	c4.889,5.8,2.494,13.444,15.142,16.253c-0.397,0.463,18.423,1.36,21.402-2.439c1.855-2.366,8.152-5.01,9.395-12.605
	c0.368-2.248,10.829-11.517,11.942-15.208c1.205-3.999,12.994-10.472,15.871-27.465c1.01-5.96,1.835-2.326,0.382-9.46
	c-0.587-2.876,6.172,1.462,10.983-4.604c2.666-3.362,13.347-8.112,12.573-10.288c-1.014-2.853-7.529-1.585-11.332-12.573
	c-1.414-4.085,3.415-21.715,1.774-19.53c-1.978,2.632-9.626,14.482-6.444,17.026c0.099,0.08-4.187-0.517-6.031-0.893
	c-7.899-1.61-11.187,0.56-17.592,4.441c-4.476,2.712-6.757,17.782-12.66,24.863c0.029,0.033-3.658,7.036-7.436,7.588
	c-4.464,0.653-28.959-3.914-32.668-6.162C129.271,119.959,118.247,113.545,116.394,113.397z"/>
<path fill-rule="evenodd" clip-rule="evenodd" fill="none" stroke="#000000" stroke-width="0.9601" stroke-linecap="round" stroke-miterlimit="2.6131" d="
	M118.299,156.07c10.809,10.474,16.476,12.545,32.004,10.636c4.934-0.606,10.418-1.141,14.478-4.158"/>
<path fill-rule="evenodd" clip-rule="evenodd" fill="none" stroke="#000000" stroke-width="0.9601" stroke-linecap="round" stroke-miterlimit="2.6131" d="
	M164.02,135.496c2.779,9.622,4.953,10.402,4.953,22.099"/>
<path fill-rule="evenodd" clip-rule="evenodd" fill="none" stroke="#000000" stroke-width="0.9601" stroke-linecap="round" stroke-miterlimit="2.6131" d="
	M148.779,177.788c3.059-0.953,15.286-1.689,16.765-4.19"/>
<path fill-rule="evenodd" clip-rule="evenodd" fill="none" stroke="#000000" stroke-width="0.9601" stroke-linecap="round" stroke-miterlimit="2.6131" d="
	M154.113,185.027c1.734-0.47,6.164-2.603,6.858-3.049"/>
<path fill-rule="evenodd" clip-rule="evenodd" fill="#FEBD19" stroke="#000000" stroke-width="0.9601" stroke-linecap="round" stroke-miterlimit="2.6131" d="
	M64.767,143.307c0.453,3.354,1.708,28.458,1.998,28.864c0.596,0.837,1.768,13.511,10.766,12.062
	c4.918-0.791,5.707,3.048,6.096-6.825c0.263-6.674-5.302-11.919-9.427-7.076c-0.446-0.021-1.534,2-0.893-3.211
	c0.428-3.479,3.127-7.963,6.292-9.809c-0.019-0.229,4.532-4.829,4.409-7.718c-0.376-8.789,0.358-1.135-12.606-3.777
	C70.151,145.562,67.863,142.4,64.767,143.307z"/>
<path fill-rule="evenodd" clip-rule="evenodd" fill="#FEBD19" stroke="#000000" stroke-width="0.9601" stroke-linecap="round" stroke-miterlimit="2.6131" d="
	M215.646,75.868c-1.807,5.669-3.7,15.53-0.67,20.863c2.83,4.978,7.208,7.557,7.239,7.62c2.501,5.037,14.633,4.907,16.765,2.406
	c2.853,0.136,11.207-12.697,12.802-11.017c3.731,3.931,0.582,1.584,9.428-0.218c2.79-0.568,10.206-1.265,12.856-0.348
	c0.856,4.136,0.444-7.375,6.161-6.924c10.865,0.858,12.516-26.525,3.146-22.512c-1.613-3.896,0.772-8.64-6.575-8.35
	c-6.011,0.237,2.439,3.107-5.084-4.822c-4.747-5.003-7.668,6.282-7.49,1.774c0.197-4.977-12.34-7.406-17.145,6.478
	c-2.858,8.256-20.756,8.136-21.239,8.48c-0.136,0.097-8.462,3.853-8.513,3.864C217.498,73.361,215.802,75.381,215.646,75.868z"/>
<path fill-rule="evenodd" clip-rule="evenodd" fill="none" stroke="#000000" stroke-width="0.9601" stroke-linecap="round" stroke-miterlimit="2.6131" d="
	M241.745,73.392c-0.687,0.286-9.682,12.915-0.762,16.002c1.179,0.408,8.821,4.598,9.145,4.572"/>
<path fill-rule="evenodd" clip-rule="evenodd" fill="none" stroke="#000000" stroke-width="0.9601" stroke-linecap="round" stroke-miterlimit="2.6131" d="
	M254.699,68.058c1.184,1.482,3.776,3.74,2.983,6.03c-3.112,1.078-4.022-2.417-4.888,2.732c-0.223,1.324-0.563,5.347,0.544,6.412
	c-0.004,0.035,2.415,6.572,6.184,2.603c2.282-2.404,8.466-1.174,10.103-5.9c1.864-0.386-4.099-14.972-3.876-20.64
	c0.021-0.531-0.581-1.763-0.762-2.286"/>
<path fill-rule="evenodd" clip-rule="evenodd" fill="none" stroke="#000000" stroke-width="0.9601" stroke-linecap="round" stroke-miterlimit="2.6131" d="
	M275.655,59.294c2.298,7.367,0.773,6.648,4.475,15.621c0.613,1.49,1.605,9.525-2.569,9.525c-1.444,0-2.395,0.381-4.572,0.381"/>
<path fill-rule="evenodd" clip-rule="evenodd" fill="none" stroke="#000000" stroke-width="0.9601" stroke-linecap="round" stroke-miterlimit="2.6131" d="
	M284.038,66.152c0.583,1.871,0.716,18.845-3.049,19.813"/>
<path fill-rule="evenodd" clip-rule="evenodd" fill="none" stroke="#000000" stroke-width="0.9601" stroke-linecap="round" stroke-miterlimit="2.6131" d="
	M266.893,83.679c2.256-0.218,4.652-1.354,5.998,0.544c1.774-0.148,2.003,5.079,2.003,6.314"/>
<path fill-rule="evenodd" clip-rule="evenodd" fill="#8E022C" stroke="#000000" stroke-width="0.9601" stroke-linecap="round" stroke-miterlimit="2.6131" d="
	M129.919,188.266c-1.938,0.273-4.039,9.413-5.273,11.588c-3.001,5.287,3.825,15.251,5.845,21.718
	c0.695,2.225,7.51,22.147,7.751,22.414c3.606,3.999,4.5,3.121,8.349,8.448c4.438,6.143,8.141,9.443,15.622,4.702
	c6.479-4.105,3.752-3.93,4.093-11.909c0.271-6.337-3.785-20.503-9.614-27.375c2.181-3.873,7.299-18.847,6.947-23.299
	c-0.077-0.977-0.428-1.591,0.381-2.096c-1.366,0.854-16.08,17.659-17.145,16.356c-0.109,0.254-0.952-0.63-1.007-0.368
	c-6.079-7.276-11.864-18.768-14.849-19.33L129.919,188.266z"/>
<path fill-rule="evenodd" clip-rule="evenodd" fill="none" stroke="#000000" stroke-width="0.9601" stroke-linecap="round" stroke-miterlimit="2.6131" d="
	M138.111,237.226c0.526,0.715,12.287,11.009,13.716,12.192"/>
<path fill-rule="evenodd" clip-rule="evenodd" fill="none" stroke="#000000" stroke-width="0.9601" stroke-linecap="round" stroke-miterlimit="2.6131" d="
	M159.066,232.272c0.659,2.509,2.503,13.319,2.667,13.716"/>
<path fill-rule="evenodd" clip-rule="evenodd" fill="#1F0001" stroke="#1F0001" stroke-width="0.9601" stroke-linecap="round" stroke-miterlimit="2.6131" d="
	M130.11,224.843c-4.929,3.567-4.542,8.522-5.596,9.999c1.43,0.989-6.441,8.643-5.835,15.719c0.089,1.036-1.029,14.06,3.996,4.322
	c1.34-2.598,7.83-17.455,7.914-17.461c4.494-0.338-0.377,16.192,9.427,15.807c0.689-0.028,3.285,0.983,4.223,0.565
	c-0.353-2.005,0.851-5.711-3.211-9.58c-3.288-3.133-4.172-2.424-5.965-8.164C134.024,232.728,132.521,227.15,130.11,224.843z"/>
<path fill-rule="evenodd" clip-rule="evenodd" fill="none" stroke="#000000" stroke-width="0.9601" stroke-linecap="round" stroke-miterlimit="2.6131" d="
	M131.158,182.074c0,1.186-1.134,6.593-2.287,6.858"/>
<path fill-rule="evenodd" clip-rule="evenodd" fill="none" stroke="#000000" stroke-width="0.9601" stroke-linecap="round" stroke-miterlimit="2.6131" d="
	M164.877,185.885c-1.701,1.356-1.715,4.65-1.715,6.858"/>
<path fill-rule="evenodd" clip-rule="evenodd" fill="none" stroke="#000000" stroke-width="0.9601" stroke-linecap="round" stroke-miterlimit="2.6131" d="
	M146.779,208.364c0.154,0.111,2.526,1.839,2.558,1.855c-0.019,0.222,3.698,3.604,3.745,3.561c-0.008,0.021,3.207,4.125,3.603,4.49"
	/>
<path fill-rule="evenodd" clip-rule="evenodd" stroke="#000000" stroke-width="0.9601" stroke-linecap="round" stroke-miterlimit="2.6131" d="
	M155.256,71.486l-1.905,2.667c4.18-9.236-12.367-6.238-17.243-3.146c-10.173,6.45-7.907,4.915-9.014,17.625
	c-0.709,8.146-4.688,7.999,4.158,7.621c4.072-0.174,5.057,0.191,5.334-6.859c0.183-4.651-1.467-10.743,6.891-12.159
	c0.325-0.055,10.692-3.188,10.919-3.625C155.454,73.697,155.137,72.527,155.256,71.486z"/>
</svg>
